<svg xmlns="http://www.w3.org/2000/svg" fill="none" viewBox="0 0 48 48" id="Rooster-1--Streamline-Ultimate" height="48" width="48"><desc>Rooster 1 Streamline Icon: https://streamlinehq.com</desc><path fill="#ff808c" d="M33.5178 18.0642C35.0368 17.1234 36.1288 15.627 36.5614 13.8932C36.9938 12.1596 36.7328 10.3256 35.8336 8.7814C34.9348 7.2372 33.4684 6.1048 31.7472 5.6252C30.0258 5.1458 28.1854 5.3568 26.6174 6.2134C26.172 4.8324 25.3 3.6284 24.1272 2.7742C22.954 1.92 21.5404 1.46 20.0894 1.46C18.6384 1.46 17.2246 1.92 16.0516 2.7742C14.8788 3.6284 14.0068 4.8324 13.5614 6.2134C11.9934 5.3568 10.1528 5.1458 8.4316 5.6252C6.7102 6.1048 5.2442 7.2372 4.345 8.7814C3.4458 10.3256 3.1848 12.1596 3.6174 13.8932C4.0498 15.627 5.1418 17.1234 6.661 18.0642" stroke-width="1"></path><path fill="#ffbfc5" d="M5.1284 16.7002C6.4804 13.8798 8.6026 11.4992 11.2498 9.8332C13.897 8.1672 16.9614 7.284 20.0892 7.2852C23.217 7.2864 26.2806 8.1722 28.9264 9.8402C31.5724 11.5082 33.6926 13.8904 35.0426 16.712C35.3368 16.3914 35.5994 16.0428 35.8264 15.6714C36.5732 14.3772 36.877 12.8746 36.6916 11.392C36.5062 9.9094 35.8418 8.5278 34.7994 7.4574C33.757 6.387 32.3932 5.6862 30.9162 5.4618C29.439 5.2372 27.9288 5.5012 26.6154 6.2134C26.17 4.8324 25.298 3.6284 24.1252 2.7742C22.952 1.92 21.5384 1.4598 20.0874 1.4598C18.6364 1.4598 17.2228 1.92 16.0498 2.7742C14.8768 3.6284 14.0048 4.8324 13.5594 6.2134C12.246 5.5012 10.7358 5.2372 9.2586 5.4618C7.7814 5.6862 6.418 6.387 5.3756 7.4574C4.333 8.5278 3.6686 9.9094 3.4832 11.392C3.2978 12.8746 3.6016 14.3772 4.3484 15.6714C4.5746 16.0386 4.8358 16.3832 5.1284 16.7002Z" stroke-width="1"></path><path stroke="#191919" stroke-linecap="round" stroke-linejoin="round" d="M33.5178 18.0642C35.0368 17.1234 36.1288 15.627 36.5614 13.8932C36.9938 12.1596 36.7328 10.3256 35.8336 8.7814C34.9348 7.2372 33.4684 6.1048 31.7472 5.6252C30.0258 5.1458 28.1854 5.3568 26.6174 6.2134C26.172 4.8324 25.3 3.6284 24.1272 2.7742C22.954 1.92 21.5404 1.46 20.0894 1.46C18.6384 1.46 17.2246 1.92 16.0516 2.7742C14.8788 3.6284 14.0068 4.8324 13.5614 6.2134C11.9934 5.3568 10.1528 5.1458 8.4316 5.6252C6.7102 6.1048 5.2442 7.2372 4.345 8.7814C3.4458 10.3256 3.1848 12.1596 3.6174 13.8932C4.0498 15.627 5.1418 17.1234 6.661 18.0642" stroke-width="1"></path><path fill="#e3e3e3" d="M30.8682 28.9018C31.0142 30.9958 31.6884 33.0186 32.828 34.7812V40.6606C32.828 42.22 32.2084 43.7154 31.106 44.818S28.5078 46.54 26.9486 46.54H3.4312V27.922C3.4324 24.4122 4.542 20.9924 6.602 18.1504C8.6618 15.3088 11.5668 13.1902 14.9022 12.0974C18.2374 11.0044 21.8328 10.9928 25.175 12.0644C28.5174 13.136 31.4358 15.2358 33.5138 18.0644C35.0318 20.1218 36.0514 22.5034 36.4928 25.0216C36.2576 25.002 36.0028 24.9824 35.7676 24.9824C33.8078 24.9824 30.8682 25.9622 30.8682 28.9018Z" stroke-width="1"></path><path fill="#ffffff" d="M20.0894 21.5998C22.2688 21.6014 24.4266 22.0324 26.4394 22.868C28.4522 23.7036 30.2808 24.9274 31.8206 26.4698C32.8958 25.4844 34.3096 24.9518 35.7676 24.9822C36.0028 24.9822 36.2576 25.0018 36.4928 25.0214C35.9236 21.8106 34.4246 18.8374 32.1816 16.4704C29.9384 14.1034 27.0502 12.4468 23.8742 11.706C20.6986 10.9652 17.3754 11.1728 14.3164 12.303C11.2576 13.4334 8.5978 15.4366 6.6668 18.0642C4.5594 20.9182 3.425 24.3742 3.4312 27.922V38.2578C3.4312 33.84 5.1862 29.6028 8.3102 26.4788C11.4342 23.3546 15.6714 21.5998 20.0894 21.5998Z" stroke-width="1"></path><path fill="#ff808c" d="M18.4294 32.3648C19.1812 32.6062 19.839 33.0754 20.312 33.7076C20.7852 34.3396 21.0496 35.1032 21.0692 35.8924V40.6606C21.0692 42.22 21.6888 43.7152 22.7914 44.818C23.894 45.9206 25.3894 46.54 26.9486 46.54C28.5078 46.54 30.0034 45.9206 31.1058 44.818C32.2084 43.7152 32.828 42.22 32.828 40.6606V34.7812C30.729 30.5578 25.3808 30.4482 18.4294 32.3648Z" stroke-width="1"></path><path stroke="#191919" stroke-linecap="round" stroke-linejoin="round" d="M18.4294 32.3648C19.1812 32.606 19.839 33.0754 20.312 33.7074C20.7852 34.3394 21.0496 35.1032 21.0692 35.8924V40.6606C21.0692 42.2198 21.6888 43.7152 22.7914 44.8178C23.894 45.9204 25.3894 46.54 26.9486 46.54C28.5078 46.54 30.0034 45.9204 31.1058 44.8178C32.2084 43.7152 32.828 42.2198 32.828 40.6606V34.7812" stroke-width="1"></path><path fill="#ffffff" d="M23.029 28.9018C26.2762 28.9018 28.9084 26.2696 28.9084 23.0226S26.2762 17.1432 23.029 17.1432C19.782 17.1432 17.1498 19.7754 17.1498 23.0226S19.782 28.9018 23.029 28.9018Z" stroke-width="1"></path><path fill="#e3e3e3" d="M23.029 24.6962C21.8416 24.6946 20.6826 24.3328 19.7054 23.6586C18.728 22.9844 17.9782 22.0294 17.5554 20.9196C17.2912 21.5896 17.1536 22.3024 17.1496 23.0226C17.1442 23.8886 17.3298 24.745 17.6938 25.5308C18.0576 26.3168 18.5906 27.0124 19.2546 27.5682C19.9186 28.1242 20.6972 28.5266 21.5348 28.7466C22.3722 28.9668 23.248 28.9992 24.0994 28.8416C24.951 28.6838 25.7572 28.34 26.4604 27.8346C27.1636 27.3292 27.7464 26.6746 28.1672 25.9178C28.5882 25.1608 28.8366 24.3204 28.8948 23.4564C28.9532 22.5924 28.82 21.7262 28.5046 20.9196C28.08 22.0286 27.3296 22.9826 26.3522 23.6568C25.375 24.3308 24.2162 24.6932 23.029 24.6962Z" stroke-width="1"></path><path stroke="#191919" stroke-linecap="round" stroke-linejoin="round" d="M23.029 28.9018C26.2762 28.9018 28.9084 26.2696 28.9084 23.0226S26.2762 17.1432 23.029 17.1432C19.782 17.1432 17.1498 19.7754 17.1498 23.0226S19.782 28.9018 23.029 28.9018Z" stroke-width="1"></path><path stroke="#191919" stroke-linecap="round" stroke-linejoin="round" d="M23.5072 23.1284C23.4936 23.1916 23.4674 23.2516 23.4304 23.3048S23.346 23.403 23.2912 23.4376C23.2366 23.4722 23.1754 23.4958 23.1116 23.5066C23.0478 23.5174 22.9824 23.5154 22.9192 23.5008" stroke-width="1"></path><path stroke="#191919" stroke-linecap="round" stroke-linejoin="round" d="M23.1348 22.5444C23.198 22.5582 23.258 22.5846 23.3108 22.6216C23.3638 22.6588 23.409 22.706 23.4436 22.7606C23.4782 22.8154 23.5018 22.8764 23.5126 22.94C23.5236 23.0038 23.5218 23.0692 23.5072 23.1322" stroke-width="1"></path><path stroke="#191919" stroke-linecap="round" stroke-linejoin="round" d="M22.5508 22.9164C22.5648 22.8534 22.591 22.7936 22.628 22.7406C22.6654 22.6876 22.7126 22.6426 22.7672 22.6078C22.822 22.5734 22.8828 22.5498 22.9468 22.5388C23.0104 22.5278 23.0758 22.5298 23.1388 22.5442" stroke-width="1"></path><path stroke="#191919" stroke-linecap="round" stroke-linejoin="round" d="M22.9232 23.5008C22.86 23.4868 22.8002 23.4606 22.7472 23.4232C22.6944 23.3862 22.649 23.339 22.6146 23.2844C22.5798 23.2296 22.5564 23.1688 22.5456 23.1048C22.5346 23.0412 22.5364 22.9758 22.5508 22.9128" stroke-width="1"></path><path fill="#ffef5e" stroke="#191919" stroke-linecap="round" stroke-linejoin="round" d="M44.5866 33.8014C44.4286 31.5144 43.4486 29.3622 41.8276 27.7412C40.2068 26.1204 38.0546 25.1404 35.7676 24.9824C33.8078 24.9824 30.8682 25.9622 30.8682 28.9018C31.0142 30.9958 31.6884 33.0186 32.828 34.7812C32.828 34.7812 35.7676 30.8616 44.5866 33.8014Z" stroke-width="1"></path><path stroke="#191919" stroke-linecap="round" stroke-linejoin="round" d="M36.4966 25.0256C35.7758 20.919 33.5414 17.2322 30.2346 14.693C26.9278 12.1538 22.789 10.947 18.6356 11.3108C14.4824 11.6748 10.6164 13.5828 7.8014 16.6582C4.9864 19.7336 3.427 23.753 3.4312 27.9222V46.5402" stroke-width="1"></path></svg>